<mxfile host="Electron" modified="2023-04-12T19:49:24.583Z" agent="Mozilla/5.0 (Windows NT 10.0; Win64; x64) AppleWebKit/537.36 (KHTML, like Gecko) draw.io/21.1.2 Chrome/106.0.5249.199 Electron/21.4.3 Safari/537.36" etag="nVWkuPyI7j4d9YNVuDNW" version="21.1.2" type="device">
  <diagram name="Page-1" id="OoflCRdHciHYZgeoLa3L">
    <mxGraphModel dx="4609" dy="2658" grid="1" gridSize="10" guides="1" tooltips="1" connect="1" arrows="1" fold="1" page="1" pageScale="1" pageWidth="850" pageHeight="1100" math="0" shadow="0">
      <root>
        <mxCell id="0" />
        <mxCell id="1" parent="0" />
        <mxCell id="vnYIw1lUBsMffNahwLSk-1" value="" style="rounded=0;whiteSpace=wrap;html=1;movable=1;resizable=1;rotatable=1;deletable=1;editable=1;locked=0;connectable=1;" vertex="1" parent="1">
          <mxGeometry width="1700" height="3640" as="geometry" />
        </mxCell>
        <mxCell id="vnYIw1lUBsMffNahwLSk-2" value="" style="rounded=0;whiteSpace=wrap;html=1;movable=0;resizable=0;rotatable=0;deletable=0;editable=0;locked=1;connectable=0;" vertex="1" parent="1">
          <mxGeometry width="1700" height="120" as="geometry" />
        </mxCell>
        <mxCell id="vnYIw1lUBsMffNahwLSk-3" value="Logo" style="ellipse;whiteSpace=wrap;html=1;" vertex="1" parent="1">
          <mxGeometry x="20" y="10" width="150" height="100" as="geometry" />
        </mxCell>
        <mxCell id="vnYIw1lUBsMffNahwLSk-4" value="Vehicles" style="rounded=0;whiteSpace=wrap;html=1;flipH=1;" vertex="1" parent="1">
          <mxGeometry x="210" y="40" width="90" height="50" as="geometry" />
        </mxCell>
        <mxCell id="vnYIw1lUBsMffNahwLSk-5" value="Shop" style="rounded=0;whiteSpace=wrap;html=1;flipH=1;" vertex="1" parent="1">
          <mxGeometry x="317" y="40" width="90" height="50" as="geometry" />
        </mxCell>
        <mxCell id="vnYIw1lUBsMffNahwLSk-6" value="Ownership" style="rounded=0;whiteSpace=wrap;html=1;flipH=1;" vertex="1" parent="1">
          <mxGeometry x="423" y="40" width="90" height="50" as="geometry" />
        </mxCell>
        <mxCell id="vnYIw1lUBsMffNahwLSk-7" value="Explore" style="rounded=0;whiteSpace=wrap;html=1;flipH=1;" vertex="1" parent="1">
          <mxGeometry x="530" y="40" width="90" height="50" as="geometry" />
        </mxCell>
        <mxCell id="vnYIw1lUBsMffNahwLSk-8" value="" style="sketch=0;pointerEvents=1;shadow=0;dashed=0;html=1;strokeColor=none;fillColor=#505050;labelPosition=center;verticalLabelPosition=bottom;verticalAlign=top;outlineConnect=0;align=center;shape=mxgraph.office.concepts.search;flipH=1;" vertex="1" parent="1">
          <mxGeometry x="1450" y="45" width="40" height="34.5" as="geometry" />
        </mxCell>
        <mxCell id="vnYIw1lUBsMffNahwLSk-9" value="" style="html=1;verticalLabelPosition=bottom;align=center;labelBackgroundColor=#ffffff;verticalAlign=top;strokeWidth=2;shadow=0;dashed=0;shape=mxgraph.ios7.icons.location;" vertex="1" parent="1">
          <mxGeometry x="1546" y="46.5" width="30" height="35" as="geometry" />
        </mxCell>
        <mxCell id="vnYIw1lUBsMffNahwLSk-10" value="" style="sketch=0;pointerEvents=1;shadow=0;dashed=0;html=1;strokeColor=none;labelPosition=center;verticalLabelPosition=bottom;verticalAlign=top;align=center;fillColor=#505050;shape=mxgraph.mscae.intune.account_portal" vertex="1" parent="1">
          <mxGeometry x="1630" y="35" width="43" height="50" as="geometry" />
        </mxCell>
        <mxCell id="vnYIw1lUBsMffNahwLSk-11" value="" style="rounded=0;whiteSpace=wrap;html=1;fillColor=#F8F9F9;" vertex="1" parent="1">
          <mxGeometry y="120" width="1700" height="600" as="geometry" />
        </mxCell>
        <mxCell id="vnYIw1lUBsMffNahwLSk-12" value="Image" style="rounded=0;whiteSpace=wrap;html=1;" vertex="1" parent="1">
          <mxGeometry x="440" y="120" width="885" height="470" as="geometry" />
        </mxCell>
        <mxCell id="vnYIw1lUBsMffNahwLSk-13" value="Text" style="rounded=0;whiteSpace=wrap;html=1;fontStyle=1" vertex="1" parent="1">
          <mxGeometry x="500" y="590" width="250" height="40" as="geometry" />
        </mxCell>
        <mxCell id="vnYIw1lUBsMffNahwLSk-14" value="Bottom Text" style="rounded=0;whiteSpace=wrap;html=1;fontStyle=0" vertex="1" parent="1">
          <mxGeometry x="500" y="630" width="250" height="40" as="geometry" />
        </mxCell>
        <mxCell id="vnYIw1lUBsMffNahwLSk-19" value="" style="shape=partialRectangle;whiteSpace=wrap;html=1;right=0;top=0;bottom=0;fillColor=none;routingCenterX=-0.5;" vertex="1" parent="1">
          <mxGeometry x="1020" y="600" width="120" height="60" as="geometry" />
        </mxCell>
        <mxCell id="vnYIw1lUBsMffNahwLSk-20" value="Link Button" style="rounded=0;whiteSpace=wrap;html=1;fontStyle=1" vertex="1" parent="1">
          <mxGeometry x="1050" y="610" width="160" height="40" as="geometry" />
        </mxCell>
        <mxCell id="vnYIw1lUBsMffNahwLSk-21" value="" style="rounded=0;whiteSpace=wrap;html=1;movable=1;resizable=1;rotatable=1;deletable=1;editable=1;locked=0;connectable=1;" vertex="1" parent="1">
          <mxGeometry y="720" width="1700" height="1240" as="geometry" />
        </mxCell>
        <mxCell id="vnYIw1lUBsMffNahwLSk-22" value="" style="rounded=0;whiteSpace=wrap;html=1;fillColor=#F8F9F9;" vertex="1" parent="1">
          <mxGeometry y="1960" width="1700" height="470" as="geometry" />
        </mxCell>
        <mxCell id="vnYIw1lUBsMffNahwLSk-23" value="" style="rounded=0;whiteSpace=wrap;html=1;" vertex="1" parent="1">
          <mxGeometry y="2430" width="1700" height="230" as="geometry" />
        </mxCell>
        <mxCell id="vnYIw1lUBsMffNahwLSk-24" value="" style="rounded=0;whiteSpace=wrap;html=1;fillColor=#F8F9F9;" vertex="1" parent="1">
          <mxGeometry y="2660" width="1700" height="120" as="geometry" />
        </mxCell>
        <mxCell id="vnYIw1lUBsMffNahwLSk-25" value="" style="rounded=0;whiteSpace=wrap;html=1;" vertex="1" parent="1">
          <mxGeometry y="2780" width="1700" height="500" as="geometry" />
        </mxCell>
        <mxCell id="vnYIw1lUBsMffNahwLSk-26" value="" style="rounded=0;whiteSpace=wrap;html=1;" vertex="1" parent="1">
          <mxGeometry y="3280" width="1700" height="60" as="geometry" />
        </mxCell>
        <mxCell id="vnYIw1lUBsMffNahwLSk-27" value="" style="rounded=0;whiteSpace=wrap;html=1;" vertex="1" parent="1">
          <mxGeometry y="3340" width="1700" height="300" as="geometry" />
        </mxCell>
        <mxCell id="vnYIw1lUBsMffNahwLSk-37" value="&lt;font style=&quot;font-size: 19px;&quot;&gt;. . .&lt;/font&gt;" style="ellipse;whiteSpace=wrap;html=1;aspect=fixed;fontStyle=1" vertex="1" parent="1">
          <mxGeometry x="1610" y="150" width="60" height="60" as="geometry" />
        </mxCell>
        <mxCell id="vnYIw1lUBsMffNahwLSk-83" value="" style="group" vertex="1" connectable="0" parent="1">
          <mxGeometry x="381.5" y="825" width="298.5" height="315" as="geometry" />
        </mxCell>
        <mxCell id="vnYIw1lUBsMffNahwLSk-28" value="" style="verticalLabelPosition=bottom;verticalAlign=top;shape=mxgraph.basic.rect;fillColor2=none;strokeWidth=1;size=20;indent=5;html=1;" vertex="1" parent="vnYIw1lUBsMffNahwLSk-83">
          <mxGeometry x="58.5" width="240" height="120" as="geometry" />
        </mxCell>
        <mxCell id="vnYIw1lUBsMffNahwLSk-53" value="Image" style="text;html=1;strokeColor=none;fillColor=none;align=center;verticalAlign=middle;whiteSpace=wrap;rounded=0;" vertex="1" parent="vnYIw1lUBsMffNahwLSk-83">
          <mxGeometry x="148.5" y="45" width="60" height="30" as="geometry" />
        </mxCell>
        <mxCell id="vnYIw1lUBsMffNahwLSk-62" value="Title of car" style="text;html=1;strokeColor=none;fillColor=none;align=center;verticalAlign=middle;whiteSpace=wrap;rounded=0;fontStyle=1" vertex="1" parent="vnYIw1lUBsMffNahwLSk-83">
          <mxGeometry x="25.5" y="145" width="127" height="30" as="geometry" />
        </mxCell>
        <mxCell id="vnYIw1lUBsMffNahwLSk-71" value="Price" style="text;html=1;strokeColor=none;fillColor=none;align=center;verticalAlign=middle;whiteSpace=wrap;rounded=0;" vertex="1" parent="vnYIw1lUBsMffNahwLSk-83">
          <mxGeometry x="21.5" y="165" width="110" height="30" as="geometry" />
        </mxCell>
        <mxCell id="vnYIw1lUBsMffNahwLSk-72" value="Statement" style="text;html=1;strokeColor=none;fillColor=none;align=center;verticalAlign=middle;whiteSpace=wrap;rounded=0;" vertex="1" parent="vnYIw1lUBsMffNahwLSk-83">
          <mxGeometry x="2.5" y="195" width="173" height="30" as="geometry" />
        </mxCell>
        <mxCell id="vnYIw1lUBsMffNahwLSk-73" value="" style="verticalLabelPosition=bottom;verticalAlign=top;shape=mxgraph.basic.rect;fillColor2=none;strokeWidth=1;size=20;indent=5;html=1;" vertex="1" parent="vnYIw1lUBsMffNahwLSk-83">
          <mxGeometry x="58.5" y="235" width="110" height="40" as="geometry" />
        </mxCell>
        <mxCell id="vnYIw1lUBsMffNahwLSk-74" value="Link Button" style="text;html=1;strokeColor=none;fillColor=none;align=center;verticalAlign=middle;whiteSpace=wrap;rounded=0;" vertex="1" parent="vnYIw1lUBsMffNahwLSk-83">
          <mxGeometry x="63.5" y="240" width="85" height="30" as="geometry" />
        </mxCell>
        <mxCell id="vnYIw1lUBsMffNahwLSk-75" value="More" style="text;html=1;strokeColor=none;fillColor=none;align=center;verticalAlign=middle;whiteSpace=wrap;rounded=0;" vertex="1" parent="vnYIw1lUBsMffNahwLSk-83">
          <mxGeometry y="285" width="173" height="30" as="geometry" />
        </mxCell>
        <mxCell id="vnYIw1lUBsMffNahwLSk-84" value="" style="group" vertex="1" connectable="0" parent="1">
          <mxGeometry x="716" y="825" width="298.5" height="315" as="geometry" />
        </mxCell>
        <mxCell id="vnYIw1lUBsMffNahwLSk-85" value="" style="verticalLabelPosition=bottom;verticalAlign=top;shape=mxgraph.basic.rect;fillColor2=none;strokeWidth=1;size=20;indent=5;html=1;" vertex="1" parent="vnYIw1lUBsMffNahwLSk-84">
          <mxGeometry x="58.5" width="240" height="120" as="geometry" />
        </mxCell>
        <mxCell id="vnYIw1lUBsMffNahwLSk-86" value="Image" style="text;html=1;strokeColor=none;fillColor=none;align=center;verticalAlign=middle;whiteSpace=wrap;rounded=0;" vertex="1" parent="vnYIw1lUBsMffNahwLSk-84">
          <mxGeometry x="148.5" y="45" width="60" height="30" as="geometry" />
        </mxCell>
        <mxCell id="vnYIw1lUBsMffNahwLSk-87" value="Title of car" style="text;html=1;strokeColor=none;fillColor=none;align=center;verticalAlign=middle;whiteSpace=wrap;rounded=0;fontStyle=1" vertex="1" parent="vnYIw1lUBsMffNahwLSk-84">
          <mxGeometry x="25.5" y="145" width="127" height="30" as="geometry" />
        </mxCell>
        <mxCell id="vnYIw1lUBsMffNahwLSk-88" value="Price" style="text;html=1;strokeColor=none;fillColor=none;align=center;verticalAlign=middle;whiteSpace=wrap;rounded=0;" vertex="1" parent="vnYIw1lUBsMffNahwLSk-84">
          <mxGeometry x="21.5" y="165" width="110" height="30" as="geometry" />
        </mxCell>
        <mxCell id="vnYIw1lUBsMffNahwLSk-89" value="Statement" style="text;html=1;strokeColor=none;fillColor=none;align=center;verticalAlign=middle;whiteSpace=wrap;rounded=0;" vertex="1" parent="vnYIw1lUBsMffNahwLSk-84">
          <mxGeometry x="2.5" y="195" width="173" height="30" as="geometry" />
        </mxCell>
        <mxCell id="vnYIw1lUBsMffNahwLSk-90" value="" style="verticalLabelPosition=bottom;verticalAlign=top;shape=mxgraph.basic.rect;fillColor2=none;strokeWidth=1;size=20;indent=5;html=1;" vertex="1" parent="vnYIw1lUBsMffNahwLSk-84">
          <mxGeometry x="58.5" y="235" width="110" height="40" as="geometry" />
        </mxCell>
        <mxCell id="vnYIw1lUBsMffNahwLSk-91" value="Link Button" style="text;html=1;strokeColor=none;fillColor=none;align=center;verticalAlign=middle;whiteSpace=wrap;rounded=0;" vertex="1" parent="vnYIw1lUBsMffNahwLSk-84">
          <mxGeometry x="63.5" y="240" width="85" height="30" as="geometry" />
        </mxCell>
        <mxCell id="vnYIw1lUBsMffNahwLSk-92" value="More" style="text;html=1;strokeColor=none;fillColor=none;align=center;verticalAlign=middle;whiteSpace=wrap;rounded=0;" vertex="1" parent="vnYIw1lUBsMffNahwLSk-84">
          <mxGeometry y="285" width="173" height="30" as="geometry" />
        </mxCell>
        <mxCell id="vnYIw1lUBsMffNahwLSk-93" value="" style="group" vertex="1" connectable="0" parent="1">
          <mxGeometry x="1050" y="825" width="301" height="700" as="geometry" />
        </mxCell>
        <mxCell id="vnYIw1lUBsMffNahwLSk-94" value="" style="verticalLabelPosition=bottom;verticalAlign=top;shape=mxgraph.basic.rect;fillColor2=none;strokeWidth=1;size=20;indent=5;html=1;" vertex="1" parent="vnYIw1lUBsMffNahwLSk-93">
          <mxGeometry x="58.5" width="240" height="120" as="geometry" />
        </mxCell>
        <mxCell id="vnYIw1lUBsMffNahwLSk-95" value="Image" style="text;html=1;strokeColor=none;fillColor=none;align=center;verticalAlign=middle;whiteSpace=wrap;rounded=0;" vertex="1" parent="vnYIw1lUBsMffNahwLSk-93">
          <mxGeometry x="148.5" y="45" width="60" height="30" as="geometry" />
        </mxCell>
        <mxCell id="vnYIw1lUBsMffNahwLSk-96" value="Title of car" style="text;html=1;strokeColor=none;fillColor=none;align=center;verticalAlign=middle;whiteSpace=wrap;rounded=0;fontStyle=1" vertex="1" parent="vnYIw1lUBsMffNahwLSk-93">
          <mxGeometry x="25.5" y="145" width="127" height="30" as="geometry" />
        </mxCell>
        <mxCell id="vnYIw1lUBsMffNahwLSk-97" value="Price" style="text;html=1;strokeColor=none;fillColor=none;align=center;verticalAlign=middle;whiteSpace=wrap;rounded=0;" vertex="1" parent="vnYIw1lUBsMffNahwLSk-93">
          <mxGeometry x="21.5" y="165" width="110" height="30" as="geometry" />
        </mxCell>
        <mxCell id="vnYIw1lUBsMffNahwLSk-98" value="Statement" style="text;html=1;strokeColor=none;fillColor=none;align=center;verticalAlign=middle;whiteSpace=wrap;rounded=0;" vertex="1" parent="vnYIw1lUBsMffNahwLSk-93">
          <mxGeometry x="2.5" y="195" width="173" height="30" as="geometry" />
        </mxCell>
        <mxCell id="vnYIw1lUBsMffNahwLSk-99" value="" style="verticalLabelPosition=bottom;verticalAlign=top;shape=mxgraph.basic.rect;fillColor2=none;strokeWidth=1;size=20;indent=5;html=1;" vertex="1" parent="vnYIw1lUBsMffNahwLSk-93">
          <mxGeometry x="58.5" y="235" width="110" height="40" as="geometry" />
        </mxCell>
        <mxCell id="vnYIw1lUBsMffNahwLSk-100" value="Link Button" style="text;html=1;strokeColor=none;fillColor=none;align=center;verticalAlign=middle;whiteSpace=wrap;rounded=0;" vertex="1" parent="vnYIw1lUBsMffNahwLSk-93">
          <mxGeometry x="63.5" y="240" width="85" height="30" as="geometry" />
        </mxCell>
        <mxCell id="vnYIw1lUBsMffNahwLSk-101" value="More" style="text;html=1;strokeColor=none;fillColor=none;align=center;verticalAlign=middle;whiteSpace=wrap;rounded=0;" vertex="1" parent="vnYIw1lUBsMffNahwLSk-93">
          <mxGeometry y="285" width="173" height="30" as="geometry" />
        </mxCell>
        <mxCell id="vnYIw1lUBsMffNahwLSk-122" value="" style="group" vertex="1" connectable="0" parent="vnYIw1lUBsMffNahwLSk-93">
          <mxGeometry y="385" width="298.5" height="315" as="geometry" />
        </mxCell>
        <mxCell id="vnYIw1lUBsMffNahwLSk-123" value="" style="verticalLabelPosition=bottom;verticalAlign=top;shape=mxgraph.basic.rect;fillColor2=none;strokeWidth=1;size=20;indent=5;html=1;" vertex="1" parent="vnYIw1lUBsMffNahwLSk-122">
          <mxGeometry x="58.5" width="240" height="120" as="geometry" />
        </mxCell>
        <mxCell id="vnYIw1lUBsMffNahwLSk-124" value="Image" style="text;html=1;strokeColor=none;fillColor=none;align=center;verticalAlign=middle;whiteSpace=wrap;rounded=0;" vertex="1" parent="vnYIw1lUBsMffNahwLSk-122">
          <mxGeometry x="148.5" y="45" width="60" height="30" as="geometry" />
        </mxCell>
        <mxCell id="vnYIw1lUBsMffNahwLSk-125" value="Title of car" style="text;html=1;strokeColor=none;fillColor=none;align=center;verticalAlign=middle;whiteSpace=wrap;rounded=0;fontStyle=1" vertex="1" parent="vnYIw1lUBsMffNahwLSk-122">
          <mxGeometry x="25.5" y="145" width="127" height="30" as="geometry" />
        </mxCell>
        <mxCell id="vnYIw1lUBsMffNahwLSk-126" value="Price" style="text;html=1;strokeColor=none;fillColor=none;align=center;verticalAlign=middle;whiteSpace=wrap;rounded=0;" vertex="1" parent="vnYIw1lUBsMffNahwLSk-122">
          <mxGeometry x="21.5" y="165" width="110" height="30" as="geometry" />
        </mxCell>
        <mxCell id="vnYIw1lUBsMffNahwLSk-127" value="Statement" style="text;html=1;strokeColor=none;fillColor=none;align=center;verticalAlign=middle;whiteSpace=wrap;rounded=0;" vertex="1" parent="vnYIw1lUBsMffNahwLSk-122">
          <mxGeometry x="2.5" y="195" width="173" height="30" as="geometry" />
        </mxCell>
        <mxCell id="vnYIw1lUBsMffNahwLSk-128" value="" style="verticalLabelPosition=bottom;verticalAlign=top;shape=mxgraph.basic.rect;fillColor2=none;strokeWidth=1;size=20;indent=5;html=1;" vertex="1" parent="vnYIw1lUBsMffNahwLSk-122">
          <mxGeometry x="58.5" y="235" width="110" height="40" as="geometry" />
        </mxCell>
        <mxCell id="vnYIw1lUBsMffNahwLSk-129" value="Link Button" style="text;html=1;strokeColor=none;fillColor=none;align=center;verticalAlign=middle;whiteSpace=wrap;rounded=0;" vertex="1" parent="vnYIw1lUBsMffNahwLSk-122">
          <mxGeometry x="63.5" y="240" width="85" height="30" as="geometry" />
        </mxCell>
        <mxCell id="vnYIw1lUBsMffNahwLSk-130" value="More" style="text;html=1;strokeColor=none;fillColor=none;align=center;verticalAlign=middle;whiteSpace=wrap;rounded=0;" vertex="1" parent="vnYIw1lUBsMffNahwLSk-122">
          <mxGeometry y="285" width="173" height="30" as="geometry" />
        </mxCell>
        <mxCell id="vnYIw1lUBsMffNahwLSk-104" value="" style="group;fontStyle=1" vertex="1" connectable="0" parent="1">
          <mxGeometry x="370" y="1210" width="298.5" height="315" as="geometry" />
        </mxCell>
        <mxCell id="vnYIw1lUBsMffNahwLSk-105" value="" style="verticalLabelPosition=bottom;verticalAlign=top;shape=mxgraph.basic.rect;fillColor2=none;strokeWidth=1;size=20;indent=5;html=1;" vertex="1" parent="vnYIw1lUBsMffNahwLSk-104">
          <mxGeometry x="58.5" width="240" height="120" as="geometry" />
        </mxCell>
        <mxCell id="vnYIw1lUBsMffNahwLSk-106" value="Image" style="text;html=1;strokeColor=none;fillColor=none;align=center;verticalAlign=middle;whiteSpace=wrap;rounded=0;" vertex="1" parent="vnYIw1lUBsMffNahwLSk-104">
          <mxGeometry x="148.5" y="45" width="60" height="30" as="geometry" />
        </mxCell>
        <mxCell id="vnYIw1lUBsMffNahwLSk-107" value="Title of car" style="text;html=1;strokeColor=none;fillColor=none;align=center;verticalAlign=middle;whiteSpace=wrap;rounded=0;fontStyle=1" vertex="1" parent="vnYIw1lUBsMffNahwLSk-104">
          <mxGeometry x="25.5" y="145" width="127" height="30" as="geometry" />
        </mxCell>
        <mxCell id="vnYIw1lUBsMffNahwLSk-108" value="Price" style="text;html=1;strokeColor=none;fillColor=none;align=center;verticalAlign=middle;whiteSpace=wrap;rounded=0;" vertex="1" parent="vnYIw1lUBsMffNahwLSk-104">
          <mxGeometry x="21.5" y="165" width="110" height="30" as="geometry" />
        </mxCell>
        <mxCell id="vnYIw1lUBsMffNahwLSk-109" value="Statement" style="text;html=1;strokeColor=none;fillColor=none;align=center;verticalAlign=middle;whiteSpace=wrap;rounded=0;" vertex="1" parent="vnYIw1lUBsMffNahwLSk-104">
          <mxGeometry x="2.5" y="195" width="173" height="30" as="geometry" />
        </mxCell>
        <mxCell id="vnYIw1lUBsMffNahwLSk-110" value="" style="verticalLabelPosition=bottom;verticalAlign=top;shape=mxgraph.basic.rect;fillColor2=none;strokeWidth=1;size=20;indent=5;html=1;" vertex="1" parent="vnYIw1lUBsMffNahwLSk-104">
          <mxGeometry x="58.5" y="235" width="110" height="40" as="geometry" />
        </mxCell>
        <mxCell id="vnYIw1lUBsMffNahwLSk-111" value="Link Button" style="text;html=1;strokeColor=none;fillColor=none;align=center;verticalAlign=middle;whiteSpace=wrap;rounded=0;" vertex="1" parent="vnYIw1lUBsMffNahwLSk-104">
          <mxGeometry x="63.5" y="240" width="85" height="30" as="geometry" />
        </mxCell>
        <mxCell id="vnYIw1lUBsMffNahwLSk-112" value="More" style="text;html=1;strokeColor=none;fillColor=none;align=center;verticalAlign=middle;whiteSpace=wrap;rounded=0;" vertex="1" parent="vnYIw1lUBsMffNahwLSk-104">
          <mxGeometry y="285" width="173" height="30" as="geometry" />
        </mxCell>
        <mxCell id="vnYIw1lUBsMffNahwLSk-113" value="" style="group" vertex="1" connectable="0" parent="1">
          <mxGeometry x="710" y="1210" width="298.5" height="315" as="geometry" />
        </mxCell>
        <mxCell id="vnYIw1lUBsMffNahwLSk-114" value="" style="verticalLabelPosition=bottom;verticalAlign=top;shape=mxgraph.basic.rect;fillColor2=none;strokeWidth=1;size=20;indent=5;html=1;" vertex="1" parent="vnYIw1lUBsMffNahwLSk-113">
          <mxGeometry x="58.5" width="240" height="120" as="geometry" />
        </mxCell>
        <mxCell id="vnYIw1lUBsMffNahwLSk-115" value="Image" style="text;html=1;strokeColor=none;fillColor=none;align=center;verticalAlign=middle;whiteSpace=wrap;rounded=0;" vertex="1" parent="vnYIw1lUBsMffNahwLSk-113">
          <mxGeometry x="148.5" y="45" width="60" height="30" as="geometry" />
        </mxCell>
        <mxCell id="vnYIw1lUBsMffNahwLSk-116" value="Title of car" style="text;html=1;strokeColor=none;fillColor=none;align=center;verticalAlign=middle;whiteSpace=wrap;rounded=0;fontStyle=1" vertex="1" parent="vnYIw1lUBsMffNahwLSk-113">
          <mxGeometry x="25.5" y="145" width="127" height="30" as="geometry" />
        </mxCell>
        <mxCell id="vnYIw1lUBsMffNahwLSk-117" value="Price" style="text;html=1;strokeColor=none;fillColor=none;align=center;verticalAlign=middle;whiteSpace=wrap;rounded=0;" vertex="1" parent="vnYIw1lUBsMffNahwLSk-113">
          <mxGeometry x="21.5" y="165" width="110" height="30" as="geometry" />
        </mxCell>
        <mxCell id="vnYIw1lUBsMffNahwLSk-118" value="Statement" style="text;html=1;strokeColor=none;fillColor=none;align=center;verticalAlign=middle;whiteSpace=wrap;rounded=0;" vertex="1" parent="vnYIw1lUBsMffNahwLSk-113">
          <mxGeometry x="2.5" y="195" width="173" height="30" as="geometry" />
        </mxCell>
        <mxCell id="vnYIw1lUBsMffNahwLSk-119" value="" style="verticalLabelPosition=bottom;verticalAlign=top;shape=mxgraph.basic.rect;fillColor2=none;strokeWidth=1;size=20;indent=5;html=1;" vertex="1" parent="vnYIw1lUBsMffNahwLSk-113">
          <mxGeometry x="58.5" y="235" width="110" height="40" as="geometry" />
        </mxCell>
        <mxCell id="vnYIw1lUBsMffNahwLSk-120" value="Link Button" style="text;html=1;strokeColor=none;fillColor=none;align=center;verticalAlign=middle;whiteSpace=wrap;rounded=0;" vertex="1" parent="vnYIw1lUBsMffNahwLSk-113">
          <mxGeometry x="63.5" y="240" width="85" height="30" as="geometry" />
        </mxCell>
        <mxCell id="vnYIw1lUBsMffNahwLSk-121" value="More" style="text;html=1;strokeColor=none;fillColor=none;align=center;verticalAlign=middle;whiteSpace=wrap;rounded=0;" vertex="1" parent="vnYIw1lUBsMffNahwLSk-113">
          <mxGeometry y="285" width="173" height="30" as="geometry" />
        </mxCell>
        <mxCell id="vnYIw1lUBsMffNahwLSk-131" value="" style="group" vertex="1" connectable="0" parent="1">
          <mxGeometry x="370" y="1590" width="300" height="315" as="geometry" />
        </mxCell>
        <mxCell id="vnYIw1lUBsMffNahwLSk-132" value="" style="verticalLabelPosition=bottom;verticalAlign=top;shape=mxgraph.basic.rect;fillColor2=none;strokeWidth=1;size=20;indent=5;html=1;" vertex="1" parent="vnYIw1lUBsMffNahwLSk-131">
          <mxGeometry x="58.5" width="240" height="120" as="geometry" />
        </mxCell>
        <mxCell id="vnYIw1lUBsMffNahwLSk-133" value="Image" style="text;html=1;strokeColor=none;fillColor=none;align=center;verticalAlign=middle;whiteSpace=wrap;rounded=0;" vertex="1" parent="vnYIw1lUBsMffNahwLSk-131">
          <mxGeometry x="148.5" y="45" width="60" height="30" as="geometry" />
        </mxCell>
        <mxCell id="vnYIw1lUBsMffNahwLSk-134" value="Title of car" style="text;html=1;strokeColor=none;fillColor=none;align=center;verticalAlign=middle;whiteSpace=wrap;rounded=0;fontStyle=1" vertex="1" parent="vnYIw1lUBsMffNahwLSk-131">
          <mxGeometry x="25.5" y="145" width="127" height="30" as="geometry" />
        </mxCell>
        <mxCell id="vnYIw1lUBsMffNahwLSk-135" value="Price" style="text;html=1;strokeColor=none;fillColor=none;align=center;verticalAlign=middle;whiteSpace=wrap;rounded=0;" vertex="1" parent="vnYIw1lUBsMffNahwLSk-131">
          <mxGeometry x="21.5" y="165" width="110" height="30" as="geometry" />
        </mxCell>
        <mxCell id="vnYIw1lUBsMffNahwLSk-136" value="Statement" style="text;html=1;strokeColor=none;fillColor=none;align=center;verticalAlign=middle;whiteSpace=wrap;rounded=0;" vertex="1" parent="vnYIw1lUBsMffNahwLSk-131">
          <mxGeometry x="2.5" y="195" width="173" height="30" as="geometry" />
        </mxCell>
        <mxCell id="vnYIw1lUBsMffNahwLSk-137" value="" style="verticalLabelPosition=bottom;verticalAlign=top;shape=mxgraph.basic.rect;fillColor2=none;strokeWidth=1;size=20;indent=5;html=1;" vertex="1" parent="vnYIw1lUBsMffNahwLSk-131">
          <mxGeometry x="58.5" y="235" width="110" height="40" as="geometry" />
        </mxCell>
        <mxCell id="vnYIw1lUBsMffNahwLSk-138" value="Link Button" style="text;html=1;strokeColor=none;fillColor=none;align=center;verticalAlign=middle;whiteSpace=wrap;rounded=0;" vertex="1" parent="vnYIw1lUBsMffNahwLSk-131">
          <mxGeometry x="63.5" y="240" width="85" height="30" as="geometry" />
        </mxCell>
        <mxCell id="vnYIw1lUBsMffNahwLSk-139" value="More" style="text;html=1;strokeColor=none;fillColor=none;align=center;verticalAlign=middle;whiteSpace=wrap;rounded=0;" vertex="1" parent="vnYIw1lUBsMffNahwLSk-131">
          <mxGeometry y="285" width="173" height="30" as="geometry" />
        </mxCell>
        <mxCell id="vnYIw1lUBsMffNahwLSk-140" value="" style="group;fontStyle=1" vertex="1" connectable="0" parent="1">
          <mxGeometry x="704" y="1590" width="298.5" height="315" as="geometry" />
        </mxCell>
        <mxCell id="vnYIw1lUBsMffNahwLSk-141" value="" style="verticalLabelPosition=bottom;verticalAlign=top;shape=mxgraph.basic.rect;fillColor2=none;strokeWidth=1;size=20;indent=5;html=1;" vertex="1" parent="vnYIw1lUBsMffNahwLSk-140">
          <mxGeometry x="58.5" width="240" height="120" as="geometry" />
        </mxCell>
        <mxCell id="vnYIw1lUBsMffNahwLSk-142" value="Image" style="text;html=1;strokeColor=none;fillColor=none;align=center;verticalAlign=middle;whiteSpace=wrap;rounded=0;" vertex="1" parent="vnYIw1lUBsMffNahwLSk-140">
          <mxGeometry x="148.5" y="45" width="60" height="30" as="geometry" />
        </mxCell>
        <mxCell id="vnYIw1lUBsMffNahwLSk-143" value="Title of car" style="text;html=1;strokeColor=none;fillColor=none;align=center;verticalAlign=middle;whiteSpace=wrap;rounded=0;fontStyle=1" vertex="1" parent="vnYIw1lUBsMffNahwLSk-140">
          <mxGeometry x="25.5" y="145" width="127" height="30" as="geometry" />
        </mxCell>
        <mxCell id="vnYIw1lUBsMffNahwLSk-144" value="Price" style="text;html=1;strokeColor=none;fillColor=none;align=center;verticalAlign=middle;whiteSpace=wrap;rounded=0;" vertex="1" parent="vnYIw1lUBsMffNahwLSk-140">
          <mxGeometry x="21.5" y="165" width="110" height="30" as="geometry" />
        </mxCell>
        <mxCell id="vnYIw1lUBsMffNahwLSk-145" value="Statement" style="text;html=1;strokeColor=none;fillColor=none;align=center;verticalAlign=middle;whiteSpace=wrap;rounded=0;" vertex="1" parent="vnYIw1lUBsMffNahwLSk-140">
          <mxGeometry x="2.5" y="195" width="173" height="30" as="geometry" />
        </mxCell>
        <mxCell id="vnYIw1lUBsMffNahwLSk-146" value="" style="verticalLabelPosition=bottom;verticalAlign=top;shape=mxgraph.basic.rect;fillColor2=none;strokeWidth=1;size=20;indent=5;html=1;" vertex="1" parent="vnYIw1lUBsMffNahwLSk-140">
          <mxGeometry x="58.5" y="235" width="110" height="40" as="geometry" />
        </mxCell>
        <mxCell id="vnYIw1lUBsMffNahwLSk-147" value="Link Button" style="text;html=1;strokeColor=none;fillColor=none;align=center;verticalAlign=middle;whiteSpace=wrap;rounded=0;" vertex="1" parent="vnYIw1lUBsMffNahwLSk-140">
          <mxGeometry x="63.5" y="240" width="85" height="30" as="geometry" />
        </mxCell>
        <mxCell id="vnYIw1lUBsMffNahwLSk-148" value="More" style="text;html=1;strokeColor=none;fillColor=none;align=center;verticalAlign=middle;whiteSpace=wrap;rounded=0;" vertex="1" parent="vnYIw1lUBsMffNahwLSk-140">
          <mxGeometry y="285" width="173" height="30" as="geometry" />
        </mxCell>
        <mxCell id="vnYIw1lUBsMffNahwLSk-149" value="" style="group" vertex="1" connectable="0" parent="1">
          <mxGeometry x="1038.5" y="1590" width="298.5" height="315" as="geometry" />
        </mxCell>
        <mxCell id="vnYIw1lUBsMffNahwLSk-150" value="" style="verticalLabelPosition=bottom;verticalAlign=top;shape=mxgraph.basic.rect;fillColor2=none;strokeWidth=1;size=20;indent=5;html=1;" vertex="1" parent="vnYIw1lUBsMffNahwLSk-149">
          <mxGeometry x="58.5" width="240" height="120" as="geometry" />
        </mxCell>
        <mxCell id="vnYIw1lUBsMffNahwLSk-151" value="Image" style="text;html=1;strokeColor=none;fillColor=none;align=center;verticalAlign=middle;whiteSpace=wrap;rounded=0;" vertex="1" parent="vnYIw1lUBsMffNahwLSk-149">
          <mxGeometry x="148.5" y="45" width="60" height="30" as="geometry" />
        </mxCell>
        <mxCell id="vnYIw1lUBsMffNahwLSk-152" value="Title of car" style="text;html=1;strokeColor=none;fillColor=none;align=center;verticalAlign=middle;whiteSpace=wrap;rounded=0;fontStyle=1" vertex="1" parent="vnYIw1lUBsMffNahwLSk-149">
          <mxGeometry x="25.5" y="145" width="127" height="30" as="geometry" />
        </mxCell>
        <mxCell id="vnYIw1lUBsMffNahwLSk-153" value="Price" style="text;html=1;strokeColor=none;fillColor=none;align=center;verticalAlign=middle;whiteSpace=wrap;rounded=0;" vertex="1" parent="vnYIw1lUBsMffNahwLSk-149">
          <mxGeometry x="21.5" y="165" width="110" height="30" as="geometry" />
        </mxCell>
        <mxCell id="vnYIw1lUBsMffNahwLSk-154" value="Statement" style="text;html=1;strokeColor=none;fillColor=none;align=center;verticalAlign=middle;whiteSpace=wrap;rounded=0;" vertex="1" parent="vnYIw1lUBsMffNahwLSk-149">
          <mxGeometry x="2.5" y="195" width="173" height="30" as="geometry" />
        </mxCell>
        <mxCell id="vnYIw1lUBsMffNahwLSk-155" value="" style="verticalLabelPosition=bottom;verticalAlign=top;shape=mxgraph.basic.rect;fillColor2=none;strokeWidth=1;size=20;indent=5;html=1;" vertex="1" parent="vnYIw1lUBsMffNahwLSk-149">
          <mxGeometry x="58.5" y="235" width="110" height="40" as="geometry" />
        </mxCell>
        <mxCell id="vnYIw1lUBsMffNahwLSk-156" value="Link Button" style="text;html=1;strokeColor=none;fillColor=none;align=center;verticalAlign=middle;whiteSpace=wrap;rounded=0;" vertex="1" parent="vnYIw1lUBsMffNahwLSk-149">
          <mxGeometry x="63.5" y="240" width="85" height="30" as="geometry" />
        </mxCell>
        <mxCell id="vnYIw1lUBsMffNahwLSk-157" value="More" style="text;html=1;strokeColor=none;fillColor=none;align=center;verticalAlign=middle;whiteSpace=wrap;rounded=0;" vertex="1" parent="vnYIw1lUBsMffNahwLSk-149">
          <mxGeometry y="285" width="173" height="30" as="geometry" />
        </mxCell>
        <mxCell id="vnYIw1lUBsMffNahwLSk-158" value="Image" style="rounded=0;whiteSpace=wrap;html=1;" vertex="1" parent="1">
          <mxGeometry x="399.25" y="2080" width="241.5" height="120" as="geometry" />
        </mxCell>
        <mxCell id="vnYIw1lUBsMffNahwLSk-159" value="Image" style="rounded=0;whiteSpace=wrap;html=1;" vertex="1" parent="1">
          <mxGeometry x="760" y="2080" width="241.5" height="120" as="geometry" />
        </mxCell>
        <mxCell id="vnYIw1lUBsMffNahwLSk-160" value="Image" style="rounded=0;whiteSpace=wrap;html=1;" vertex="1" parent="1">
          <mxGeometry x="1095.5" y="2080" width="241.5" height="120" as="geometry" />
        </mxCell>
        <mxCell id="vnYIw1lUBsMffNahwLSk-161" value="Offers" style="text;html=1;strokeColor=none;fillColor=none;align=left;verticalAlign=middle;whiteSpace=wrap;rounded=0;fontSize=14;fontStyle=1" vertex="1" parent="1">
          <mxGeometry x="399.25" y="2210" width="248" height="30" as="geometry" />
        </mxCell>
        <mxCell id="vnYIw1lUBsMffNahwLSk-162" value="Approved Certified..." style="text;html=1;strokeColor=none;fillColor=none;align=left;verticalAlign=middle;whiteSpace=wrap;rounded=0;fontSize=14;fontStyle=1" vertex="1" parent="1">
          <mxGeometry x="760.5" y="2210" width="248" height="30" as="geometry" />
        </mxCell>
        <mxCell id="vnYIw1lUBsMffNahwLSk-164" value="Shop branded..." style="text;html=1;strokeColor=none;fillColor=none;align=left;verticalAlign=middle;whiteSpace=wrap;rounded=0;fontSize=14;fontStyle=1" vertex="1" parent="1">
          <mxGeometry x="1095.5" y="2210" width="248" height="30" as="geometry" />
        </mxCell>
        <mxCell id="vnYIw1lUBsMffNahwLSk-165" value="Text" style="text;html=1;strokeColor=none;fillColor=none;align=left;verticalAlign=middle;whiteSpace=wrap;rounded=0;fontSize=14;fontStyle=0" vertex="1" parent="1">
          <mxGeometry x="399.25" y="2240" width="248" height="30" as="geometry" />
        </mxCell>
        <mxCell id="vnYIw1lUBsMffNahwLSk-166" value="A lot more text" style="text;html=1;strokeColor=none;fillColor=none;align=left;verticalAlign=middle;whiteSpace=wrap;rounded=0;fontSize=14;fontStyle=0" vertex="1" parent="1">
          <mxGeometry x="760.5" y="2240" width="248" height="30" as="geometry" />
        </mxCell>
        <mxCell id="vnYIw1lUBsMffNahwLSk-167" value="Text" style="text;html=1;strokeColor=none;fillColor=none;align=left;verticalAlign=middle;whiteSpace=wrap;rounded=0;fontSize=14;fontStyle=0" vertex="1" parent="1">
          <mxGeometry x="1092.25" y="2240" width="248" height="30" as="geometry" />
        </mxCell>
        <mxCell id="vnYIw1lUBsMffNahwLSk-168" value="See offers" style="text;html=1;strokeColor=none;fillColor=none;align=left;verticalAlign=middle;whiteSpace=wrap;rounded=0;fontSize=14;fontStyle=0" vertex="1" parent="1">
          <mxGeometry x="399.25" y="2280" width="248" height="30" as="geometry" />
        </mxCell>
        <mxCell id="vnYIw1lUBsMffNahwLSk-169" value="Disclaimer" style="text;html=1;strokeColor=none;fillColor=none;align=left;verticalAlign=middle;whiteSpace=wrap;rounded=0;fontSize=14;fontStyle=0" vertex="1" parent="1">
          <mxGeometry x="760.5" y="2280" width="248" height="30" as="geometry" />
        </mxCell>
        <mxCell id="vnYIw1lUBsMffNahwLSk-170" value="Search" style="text;html=1;strokeColor=none;fillColor=none;align=left;verticalAlign=middle;whiteSpace=wrap;rounded=0;fontSize=14;fontStyle=0" vertex="1" parent="1">
          <mxGeometry x="760" y="2320" width="248" height="30" as="geometry" />
        </mxCell>
        <mxCell id="vnYIw1lUBsMffNahwLSk-171" value="Offers" style="text;html=1;strokeColor=none;fillColor=none;align=left;verticalAlign=middle;whiteSpace=wrap;rounded=0;fontSize=14;fontStyle=0" vertex="1" parent="1">
          <mxGeometry x="760.5" y="2360" width="248" height="30" as="geometry" />
        </mxCell>
        <mxCell id="vnYIw1lUBsMffNahwLSk-172" value="Shop" style="text;html=1;strokeColor=none;fillColor=none;align=left;verticalAlign=middle;whiteSpace=wrap;rounded=0;fontSize=14;fontStyle=0" vertex="1" parent="1">
          <mxGeometry x="1095.5" y="2280" width="248" height="30" as="geometry" />
        </mxCell>
        <mxCell id="vnYIw1lUBsMffNahwLSk-176" value="" style="shape=partialRectangle;whiteSpace=wrap;html=1;right=0;top=0;bottom=0;fillColor=none;routingCenterX=-0.5;" vertex="1" parent="1">
          <mxGeometry x="520.75" y="2430" width="120" height="230" as="geometry" />
        </mxCell>
        <mxCell id="vnYIw1lUBsMffNahwLSk-177" value="" style="shape=partialRectangle;whiteSpace=wrap;html=1;right=0;top=0;bottom=0;fillColor=none;routingCenterX=-0.5;" vertex="1" parent="1">
          <mxGeometry x="888.5" y="2430" width="120" height="230" as="geometry" />
        </mxCell>
        <mxCell id="vnYIw1lUBsMffNahwLSk-178" value="" style="shape=partialRectangle;whiteSpace=wrap;html=1;right=0;top=0;bottom=0;fillColor=none;routingCenterX=-0.5;" vertex="1" parent="1">
          <mxGeometry x="1260" y="2430" width="120" height="230" as="geometry" />
        </mxCell>
        <mxCell id="vnYIw1lUBsMffNahwLSk-179" value="Icon" style="rounded=0;whiteSpace=wrap;html=1;" vertex="1" parent="1">
          <mxGeometry x="302" y="2470" width="120" height="60" as="geometry" />
        </mxCell>
        <mxCell id="vnYIw1lUBsMffNahwLSk-180" value="Icon" style="rounded=0;whiteSpace=wrap;html=1;" vertex="1" parent="1">
          <mxGeometry x="565" y="2470" width="120" height="60" as="geometry" />
        </mxCell>
        <mxCell id="vnYIw1lUBsMffNahwLSk-181" value="Icon" style="rounded=0;whiteSpace=wrap;html=1;" vertex="1" parent="1">
          <mxGeometry x="930" y="2470" width="120" height="60" as="geometry" />
        </mxCell>
        <mxCell id="vnYIw1lUBsMffNahwLSk-182" value="Icon" style="rounded=0;whiteSpace=wrap;html=1;" vertex="1" parent="1">
          <mxGeometry x="1290" y="2470" width="120" height="60" as="geometry" />
        </mxCell>
        <mxCell id="vnYIw1lUBsMffNahwLSk-183" value="Text" style="text;html=1;strokeColor=none;fillColor=none;align=left;verticalAlign=middle;whiteSpace=wrap;rounded=0;fontSize=14;fontStyle=0" vertex="1" parent="1">
          <mxGeometry x="302" y="2540" width="248" height="30" as="geometry" />
        </mxCell>
        <mxCell id="vnYIw1lUBsMffNahwLSk-184" value="Text" style="text;html=1;strokeColor=none;fillColor=none;align=left;verticalAlign=middle;whiteSpace=wrap;rounded=0;fontSize=14;fontStyle=0" vertex="1" parent="1">
          <mxGeometry x="565" y="2540" width="248" height="30" as="geometry" />
        </mxCell>
        <mxCell id="vnYIw1lUBsMffNahwLSk-185" value="Text" style="text;html=1;strokeColor=none;fillColor=none;align=left;verticalAlign=middle;whiteSpace=wrap;rounded=0;fontSize=14;fontStyle=0" vertex="1" parent="1">
          <mxGeometry x="930" y="2540" width="248" height="30" as="geometry" />
        </mxCell>
        <mxCell id="vnYIw1lUBsMffNahwLSk-186" value="Text" style="text;html=1;strokeColor=none;fillColor=none;align=left;verticalAlign=middle;whiteSpace=wrap;rounded=0;fontSize=14;fontStyle=0" vertex="1" parent="1">
          <mxGeometry x="1290" y="2540" width="248" height="30" as="geometry" />
        </mxCell>
        <mxCell id="vnYIw1lUBsMffNahwLSk-187" value="Text" style="text;html=1;strokeColor=none;fillColor=none;align=left;verticalAlign=middle;whiteSpace=wrap;rounded=0;fontSize=14;fontStyle=0" vertex="1" parent="1">
          <mxGeometry x="302" y="2570" width="248" height="30" as="geometry" />
        </mxCell>
        <mxCell id="vnYIw1lUBsMffNahwLSk-188" value="Text" style="text;html=1;strokeColor=none;fillColor=none;align=left;verticalAlign=middle;whiteSpace=wrap;rounded=0;fontSize=14;fontStyle=0" vertex="1" parent="1">
          <mxGeometry x="565" y="2570" width="248" height="30" as="geometry" />
        </mxCell>
        <mxCell id="vnYIw1lUBsMffNahwLSk-189" value="Text" style="text;html=1;strokeColor=none;fillColor=none;align=left;verticalAlign=middle;whiteSpace=wrap;rounded=0;fontSize=14;fontStyle=0" vertex="1" parent="1">
          <mxGeometry x="930" y="2570" width="248" height="30" as="geometry" />
        </mxCell>
        <mxCell id="vnYIw1lUBsMffNahwLSk-190" value="Text" style="text;html=1;strokeColor=none;fillColor=none;align=left;verticalAlign=middle;whiteSpace=wrap;rounded=0;fontSize=14;fontStyle=0" vertex="1" parent="1">
          <mxGeometry x="1290" y="2570" width="248" height="30" as="geometry" />
        </mxCell>
        <mxCell id="vnYIw1lUBsMffNahwLSk-191" value="&lt;u&gt;&lt;i&gt;Disclaimer&lt;/i&gt;&lt;/u&gt;" style="text;html=1;strokeColor=none;fillColor=none;align=left;verticalAlign=middle;whiteSpace=wrap;rounded=0;fontSize=14;fontStyle=0" vertex="1" parent="1">
          <mxGeometry x="340" y="2670" width="248" height="30" as="geometry" />
        </mxCell>
        <mxCell id="vnYIw1lUBsMffNahwLSk-192" value="&lt;i style=&quot;&quot;&gt;&lt;font style=&quot;font-size: 11px;&quot;&gt;Lots of small text here&lt;/font&gt;&lt;/i&gt;" style="text;html=1;strokeColor=none;fillColor=none;align=left;verticalAlign=middle;whiteSpace=wrap;rounded=0;fontSize=14;fontStyle=0" vertex="1" parent="1">
          <mxGeometry x="340" y="2705" width="440" height="30" as="geometry" />
        </mxCell>
        <mxCell id="vnYIw1lUBsMffNahwLSk-193" value="Category" style="text;html=1;strokeColor=none;fillColor=none;align=left;verticalAlign=middle;whiteSpace=wrap;rounded=0;fontSize=14;fontStyle=0" vertex="1" parent="1">
          <mxGeometry x="225" y="2830" width="60" height="30" as="geometry" />
        </mxCell>
        <mxCell id="vnYIw1lUBsMffNahwLSk-194" value="Category" style="text;html=1;strokeColor=none;fillColor=none;align=left;verticalAlign=middle;whiteSpace=wrap;rounded=0;fontSize=14;fontStyle=0" vertex="1" parent="1">
          <mxGeometry x="640.75" y="2830" width="60" height="30" as="geometry" />
        </mxCell>
        <mxCell id="vnYIw1lUBsMffNahwLSk-195" value="Category" style="text;html=1;strokeColor=none;fillColor=none;align=left;verticalAlign=middle;whiteSpace=wrap;rounded=0;fontSize=14;fontStyle=0" vertex="1" parent="1">
          <mxGeometry x="970" y="2830" width="60" height="30" as="geometry" />
        </mxCell>
        <mxCell id="vnYIw1lUBsMffNahwLSk-197" value="Social Media" style="text;html=1;strokeColor=none;fillColor=none;align=left;verticalAlign=middle;whiteSpace=wrap;rounded=0;fontSize=14;fontStyle=0" vertex="1" parent="1">
          <mxGeometry x="1390" y="2830" width="90" height="30" as="geometry" />
        </mxCell>
        <mxCell id="vnYIw1lUBsMffNahwLSk-199" value="Icon" style="rounded=0;whiteSpace=wrap;html=1;" vertex="1" parent="1">
          <mxGeometry x="1390" y="2870" width="70" height="40" as="geometry" />
        </mxCell>
        <mxCell id="vnYIw1lUBsMffNahwLSk-200" value="Icon" style="rounded=0;whiteSpace=wrap;html=1;" vertex="1" parent="1">
          <mxGeometry x="1390" y="2930" width="70" height="40" as="geometry" />
        </mxCell>
        <mxCell id="vnYIw1lUBsMffNahwLSk-201" value="Icon" style="rounded=0;whiteSpace=wrap;html=1;" vertex="1" parent="1">
          <mxGeometry x="1390" y="2990" width="70" height="40" as="geometry" />
        </mxCell>
        <mxCell id="vnYIw1lUBsMffNahwLSk-202" value="Icon" style="rounded=0;whiteSpace=wrap;html=1;" vertex="1" parent="1">
          <mxGeometry x="1390" y="3050" width="70" height="40" as="geometry" />
        </mxCell>
        <mxCell id="vnYIw1lUBsMffNahwLSk-203" value="Icon" style="rounded=0;whiteSpace=wrap;html=1;" vertex="1" parent="1">
          <mxGeometry x="1390" y="3120" width="70" height="40" as="geometry" />
        </mxCell>
        <mxCell id="vnYIw1lUBsMffNahwLSk-204" value="Text" style="text;html=1;strokeColor=none;fillColor=none;align=left;verticalAlign=middle;whiteSpace=wrap;rounded=0;fontSize=14;fontStyle=0" vertex="1" parent="1">
          <mxGeometry x="1470" y="2875" width="90" height="30" as="geometry" />
        </mxCell>
        <mxCell id="vnYIw1lUBsMffNahwLSk-205" value="Text" style="text;html=1;strokeColor=none;fillColor=none;align=left;verticalAlign=middle;whiteSpace=wrap;rounded=0;fontSize=14;fontStyle=0" vertex="1" parent="1">
          <mxGeometry x="1470" y="2930" width="90" height="30" as="geometry" />
        </mxCell>
        <mxCell id="vnYIw1lUBsMffNahwLSk-206" value="Text" style="text;html=1;strokeColor=none;fillColor=none;align=left;verticalAlign=middle;whiteSpace=wrap;rounded=0;fontSize=14;fontStyle=0" vertex="1" parent="1">
          <mxGeometry x="1470" y="2990" width="90" height="30" as="geometry" />
        </mxCell>
        <mxCell id="vnYIw1lUBsMffNahwLSk-207" value="Text" style="text;html=1;strokeColor=none;fillColor=none;align=left;verticalAlign=middle;whiteSpace=wrap;rounded=0;fontSize=14;fontStyle=0" vertex="1" parent="1">
          <mxGeometry x="1470" y="3055" width="90" height="30" as="geometry" />
        </mxCell>
        <mxCell id="vnYIw1lUBsMffNahwLSk-208" value="Text" style="text;html=1;strokeColor=none;fillColor=none;align=left;verticalAlign=middle;whiteSpace=wrap;rounded=0;fontSize=14;fontStyle=0" vertex="1" parent="1">
          <mxGeometry x="1480" y="3120" width="90" height="30" as="geometry" />
        </mxCell>
        <mxCell id="vnYIw1lUBsMffNahwLSk-209" value="Link" style="text;html=1;strokeColor=none;fillColor=none;align=left;verticalAlign=middle;whiteSpace=wrap;rounded=0;fontSize=14;fontStyle=0" vertex="1" parent="1">
          <mxGeometry x="230" y="2875" width="90" height="30" as="geometry" />
        </mxCell>
        <mxCell id="vnYIw1lUBsMffNahwLSk-210" value="Link" style="text;html=1;strokeColor=none;fillColor=none;align=left;verticalAlign=middle;whiteSpace=wrap;rounded=0;fontSize=14;fontStyle=0" vertex="1" parent="1">
          <mxGeometry x="230" y="2900" width="90" height="30" as="geometry" />
        </mxCell>
        <mxCell id="vnYIw1lUBsMffNahwLSk-211" value="Link" style="text;html=1;strokeColor=none;fillColor=none;align=left;verticalAlign=middle;whiteSpace=wrap;rounded=0;fontSize=14;fontStyle=0" vertex="1" parent="1">
          <mxGeometry x="230" y="2930" width="90" height="30" as="geometry" />
        </mxCell>
        <mxCell id="vnYIw1lUBsMffNahwLSk-212" value="Link" style="text;html=1;strokeColor=none;fillColor=none;align=left;verticalAlign=middle;whiteSpace=wrap;rounded=0;fontSize=14;fontStyle=0" vertex="1" parent="1">
          <mxGeometry x="230" y="2955" width="90" height="30" as="geometry" />
        </mxCell>
        <mxCell id="vnYIw1lUBsMffNahwLSk-213" value="Link" style="text;html=1;strokeColor=none;fillColor=none;align=left;verticalAlign=middle;whiteSpace=wrap;rounded=0;fontSize=14;fontStyle=0" vertex="1" parent="1">
          <mxGeometry x="230" y="2982.5" width="90" height="30" as="geometry" />
        </mxCell>
        <mxCell id="vnYIw1lUBsMffNahwLSk-214" value="Link" style="text;html=1;strokeColor=none;fillColor=none;align=left;verticalAlign=middle;whiteSpace=wrap;rounded=0;fontSize=14;fontStyle=0" vertex="1" parent="1">
          <mxGeometry x="230" y="3007.5" width="90" height="30" as="geometry" />
        </mxCell>
        <mxCell id="vnYIw1lUBsMffNahwLSk-215" value="Link" style="text;html=1;strokeColor=none;fillColor=none;align=left;verticalAlign=middle;whiteSpace=wrap;rounded=0;fontSize=14;fontStyle=0" vertex="1" parent="1">
          <mxGeometry x="230" y="3035" width="90" height="30" as="geometry" />
        </mxCell>
        <mxCell id="vnYIw1lUBsMffNahwLSk-216" value="Link" style="text;html=1;strokeColor=none;fillColor=none;align=left;verticalAlign=middle;whiteSpace=wrap;rounded=0;fontSize=14;fontStyle=0" vertex="1" parent="1">
          <mxGeometry x="230" y="3060" width="90" height="30" as="geometry" />
        </mxCell>
        <mxCell id="vnYIw1lUBsMffNahwLSk-217" value="Link" style="text;html=1;strokeColor=none;fillColor=none;align=left;verticalAlign=middle;whiteSpace=wrap;rounded=0;fontSize=14;fontStyle=0" vertex="1" parent="1">
          <mxGeometry x="230" y="3090" width="90" height="30" as="geometry" />
        </mxCell>
        <mxCell id="vnYIw1lUBsMffNahwLSk-218" value="Link" style="text;html=1;strokeColor=none;fillColor=none;align=left;verticalAlign=middle;whiteSpace=wrap;rounded=0;fontSize=14;fontStyle=0" vertex="1" parent="1">
          <mxGeometry x="644" y="2860" width="90" height="30" as="geometry" />
        </mxCell>
        <mxCell id="vnYIw1lUBsMffNahwLSk-219" value="Link" style="text;html=1;strokeColor=none;fillColor=none;align=left;verticalAlign=middle;whiteSpace=wrap;rounded=0;fontSize=14;fontStyle=0" vertex="1" parent="1">
          <mxGeometry x="644" y="2885" width="90" height="30" as="geometry" />
        </mxCell>
        <mxCell id="vnYIw1lUBsMffNahwLSk-220" value="Link" style="text;html=1;strokeColor=none;fillColor=none;align=left;verticalAlign=middle;whiteSpace=wrap;rounded=0;fontSize=14;fontStyle=0" vertex="1" parent="1">
          <mxGeometry x="644" y="2915" width="90" height="30" as="geometry" />
        </mxCell>
        <mxCell id="vnYIw1lUBsMffNahwLSk-221" value="Link" style="text;html=1;strokeColor=none;fillColor=none;align=left;verticalAlign=middle;whiteSpace=wrap;rounded=0;fontSize=14;fontStyle=0" vertex="1" parent="1">
          <mxGeometry x="644" y="2940" width="90" height="30" as="geometry" />
        </mxCell>
        <mxCell id="vnYIw1lUBsMffNahwLSk-222" value="Link" style="text;html=1;strokeColor=none;fillColor=none;align=left;verticalAlign=middle;whiteSpace=wrap;rounded=0;fontSize=14;fontStyle=0" vertex="1" parent="1">
          <mxGeometry x="644" y="2967.5" width="90" height="30" as="geometry" />
        </mxCell>
        <mxCell id="vnYIw1lUBsMffNahwLSk-223" value="Link" style="text;html=1;strokeColor=none;fillColor=none;align=left;verticalAlign=middle;whiteSpace=wrap;rounded=0;fontSize=14;fontStyle=0" vertex="1" parent="1">
          <mxGeometry x="644" y="2992.5" width="90" height="30" as="geometry" />
        </mxCell>
        <mxCell id="vnYIw1lUBsMffNahwLSk-224" value="Link" style="text;html=1;strokeColor=none;fillColor=none;align=left;verticalAlign=middle;whiteSpace=wrap;rounded=0;fontSize=14;fontStyle=0" vertex="1" parent="1">
          <mxGeometry x="644" y="3020" width="90" height="30" as="geometry" />
        </mxCell>
        <mxCell id="vnYIw1lUBsMffNahwLSk-225" value="Link" style="text;html=1;strokeColor=none;fillColor=none;align=left;verticalAlign=middle;whiteSpace=wrap;rounded=0;fontSize=14;fontStyle=0" vertex="1" parent="1">
          <mxGeometry x="970" y="2861.25" width="90" height="30" as="geometry" />
        </mxCell>
        <mxCell id="vnYIw1lUBsMffNahwLSk-226" value="Link" style="text;html=1;strokeColor=none;fillColor=none;align=left;verticalAlign=middle;whiteSpace=wrap;rounded=0;fontSize=14;fontStyle=0" vertex="1" parent="1">
          <mxGeometry x="970" y="2886.25" width="90" height="30" as="geometry" />
        </mxCell>
        <mxCell id="vnYIw1lUBsMffNahwLSk-227" value="Link" style="text;html=1;strokeColor=none;fillColor=none;align=left;verticalAlign=middle;whiteSpace=wrap;rounded=0;fontSize=14;fontStyle=0" vertex="1" parent="1">
          <mxGeometry x="970" y="2916.25" width="90" height="30" as="geometry" />
        </mxCell>
        <mxCell id="vnYIw1lUBsMffNahwLSk-228" value="Link" style="text;html=1;strokeColor=none;fillColor=none;align=left;verticalAlign=middle;whiteSpace=wrap;rounded=0;fontSize=14;fontStyle=0" vertex="1" parent="1">
          <mxGeometry x="970" y="2941.25" width="90" height="30" as="geometry" />
        </mxCell>
        <mxCell id="vnYIw1lUBsMffNahwLSk-229" value="Link" style="text;html=1;strokeColor=none;fillColor=none;align=left;verticalAlign=middle;whiteSpace=wrap;rounded=0;fontSize=14;fontStyle=0" vertex="1" parent="1">
          <mxGeometry x="970" y="2968.75" width="90" height="30" as="geometry" />
        </mxCell>
        <mxCell id="vnYIw1lUBsMffNahwLSk-230" value="Category" style="text;html=1;strokeColor=none;fillColor=none;align=left;verticalAlign=middle;whiteSpace=wrap;rounded=0;fontSize=14;fontStyle=0" vertex="1" parent="1">
          <mxGeometry x="970" y="3030" width="60" height="30" as="geometry" />
        </mxCell>
        <mxCell id="vnYIw1lUBsMffNahwLSk-231" value="Link" style="text;html=1;strokeColor=none;fillColor=none;align=left;verticalAlign=middle;whiteSpace=wrap;rounded=0;fontSize=14;fontStyle=0" vertex="1" parent="1">
          <mxGeometry x="970" y="3071.25" width="90" height="30" as="geometry" />
        </mxCell>
        <mxCell id="vnYIw1lUBsMffNahwLSk-232" value="Link" style="text;html=1;strokeColor=none;fillColor=none;align=left;verticalAlign=middle;whiteSpace=wrap;rounded=0;fontSize=14;fontStyle=0" vertex="1" parent="1">
          <mxGeometry x="970" y="3096.25" width="90" height="30" as="geometry" />
        </mxCell>
        <mxCell id="vnYIw1lUBsMffNahwLSk-233" value="Link" style="text;html=1;strokeColor=none;fillColor=none;align=left;verticalAlign=middle;whiteSpace=wrap;rounded=0;fontSize=14;fontStyle=0" vertex="1" parent="1">
          <mxGeometry x="970" y="3126.25" width="90" height="30" as="geometry" />
        </mxCell>
        <mxCell id="vnYIw1lUBsMffNahwLSk-234" value="Link" style="text;html=1;strokeColor=none;fillColor=none;align=left;verticalAlign=middle;whiteSpace=wrap;rounded=0;fontSize=14;fontStyle=0" vertex="1" parent="1">
          <mxGeometry x="970" y="3151.25" width="90" height="30" as="geometry" />
        </mxCell>
        <mxCell id="vnYIw1lUBsMffNahwLSk-235" value="Link" style="text;html=1;strokeColor=none;fillColor=none;align=left;verticalAlign=middle;whiteSpace=wrap;rounded=0;fontSize=14;fontStyle=0" vertex="1" parent="1">
          <mxGeometry x="970" y="3178.75" width="90" height="30" as="geometry" />
        </mxCell>
        <mxCell id="vnYIw1lUBsMffNahwLSk-236" value="Link" style="text;html=1;strokeColor=none;fillColor=none;align=left;verticalAlign=middle;whiteSpace=wrap;rounded=0;fontSize=14;fontStyle=0" vertex="1" parent="1">
          <mxGeometry x="200" y="3295" width="30" height="30" as="geometry" />
        </mxCell>
        <mxCell id="vnYIw1lUBsMffNahwLSk-238" value="Link" style="text;html=1;strokeColor=none;fillColor=none;align=left;verticalAlign=middle;whiteSpace=wrap;rounded=0;fontSize=14;fontStyle=0" vertex="1" parent="1">
          <mxGeometry x="256" y="3295" width="30" height="30" as="geometry" />
        </mxCell>
        <mxCell id="vnYIw1lUBsMffNahwLSk-239" value="Link" style="text;html=1;strokeColor=none;fillColor=none;align=left;verticalAlign=middle;whiteSpace=wrap;rounded=0;fontSize=14;fontStyle=0" vertex="1" parent="1">
          <mxGeometry x="307" y="3295" width="38" height="30" as="geometry" />
        </mxCell>
        <mxCell id="vnYIw1lUBsMffNahwLSk-240" value="Link" style="text;html=1;strokeColor=none;fillColor=none;align=left;verticalAlign=middle;whiteSpace=wrap;rounded=0;fontSize=14;fontStyle=0" vertex="1" parent="1">
          <mxGeometry x="367" y="3295" width="30" height="30" as="geometry" />
        </mxCell>
        <mxCell id="vnYIw1lUBsMffNahwLSk-241" value="Link" style="text;html=1;strokeColor=none;fillColor=none;align=left;verticalAlign=middle;whiteSpace=wrap;rounded=0;fontSize=14;fontStyle=0" vertex="1" parent="1">
          <mxGeometry x="420" y="3295" width="35" height="30" as="geometry" />
        </mxCell>
        <mxCell id="vnYIw1lUBsMffNahwLSk-242" value="Link" style="text;html=1;strokeColor=none;fillColor=none;align=left;verticalAlign=middle;whiteSpace=wrap;rounded=0;fontSize=14;fontStyle=0" vertex="1" parent="1">
          <mxGeometry x="478" y="3295" width="30" height="30" as="geometry" />
        </mxCell>
        <mxCell id="vnYIw1lUBsMffNahwLSk-243" value="Link" style="text;html=1;strokeColor=none;fillColor=none;align=left;verticalAlign=middle;whiteSpace=wrap;rounded=0;fontSize=14;fontStyle=0" vertex="1" parent="1">
          <mxGeometry x="533" y="3295" width="32" height="30" as="geometry" />
        </mxCell>
        <mxCell id="vnYIw1lUBsMffNahwLSk-244" value="Link" style="text;html=1;strokeColor=none;fillColor=none;align=left;verticalAlign=middle;whiteSpace=wrap;rounded=0;fontSize=14;fontStyle=0" vertex="1" parent="1">
          <mxGeometry x="588" y="3295" width="32" height="30" as="geometry" />
        </mxCell>
        <mxCell id="vnYIw1lUBsMffNahwLSk-245" value="Link" style="text;html=1;strokeColor=none;fillColor=none;align=left;verticalAlign=middle;whiteSpace=wrap;rounded=0;fontSize=14;fontStyle=0" vertex="1" parent="1">
          <mxGeometry x="640" y="3295" width="40" height="30" as="geometry" />
        </mxCell>
        <mxCell id="vnYIw1lUBsMffNahwLSk-248" value="Copyright" style="text;html=1;strokeColor=none;fillColor=none;align=left;verticalAlign=middle;whiteSpace=wrap;rounded=0;fontSize=14;fontStyle=0" vertex="1" parent="1">
          <mxGeometry x="200" y="3370" width="30" height="30" as="geometry" />
        </mxCell>
        <mxCell id="vnYIw1lUBsMffNahwLSk-249" value="Note" style="text;html=1;strokeColor=none;fillColor=none;align=left;verticalAlign=middle;whiteSpace=wrap;rounded=0;fontSize=14;fontStyle=0" vertex="1" parent="1">
          <mxGeometry x="200" y="3410" width="30" height="30" as="geometry" />
        </mxCell>
        <mxCell id="vnYIw1lUBsMffNahwLSk-250" value="Text" style="text;html=1;strokeColor=none;fillColor=none;align=left;verticalAlign=middle;whiteSpace=wrap;rounded=0;fontSize=14;fontStyle=0" vertex="1" parent="1">
          <mxGeometry x="200" y="3450" width="30" height="30" as="geometry" />
        </mxCell>
        <mxCell id="vnYIw1lUBsMffNahwLSk-251" value="Text" style="text;html=1;strokeColor=none;fillColor=none;align=left;verticalAlign=middle;whiteSpace=wrap;rounded=0;fontSize=14;fontStyle=0" vertex="1" parent="1">
          <mxGeometry x="200" y="3490" width="30" height="30" as="geometry" />
        </mxCell>
        <mxCell id="vnYIw1lUBsMffNahwLSk-252" value="Text" style="text;html=1;strokeColor=none;fillColor=none;align=left;verticalAlign=middle;whiteSpace=wrap;rounded=0;fontSize=14;fontStyle=0" vertex="1" parent="1">
          <mxGeometry x="200" y="3540" width="30" height="30" as="geometry" />
        </mxCell>
        <mxCell id="vnYIw1lUBsMffNahwLSk-253" value="Text" style="text;html=1;strokeColor=none;fillColor=none;align=left;verticalAlign=middle;whiteSpace=wrap;rounded=0;fontSize=14;fontStyle=0" vertex="1" parent="1">
          <mxGeometry x="200" y="3600" width="30" height="30" as="geometry" />
        </mxCell>
      </root>
    </mxGraphModel>
  </diagram>
</mxfile>
